<svg width="225" height="225" version="1.1" xmlns="http://www.w3.org/2000/svg" desc="Created with ImageTracer.java version 1.1.2" ><path desc="l 1 p 0" fill="rgb(254,254,254)" stroke="rgb(254,254,254)" stroke-width="1" opacity="1.0" d="M 0.5 0.0 L 18.0 0.5 L 14.0 3.5 L 13.0 8.5 Q 15.3 9.8 14.0 14.5 L 15.5 31.0 L 21.0 92.5 L 24.0 126.5 L 25.0 143.5 L 26.0 147.5 L 26.5 155.0 L 29.0 181.5 L 30.0 192.5 Q 29.8 200.8 34.5 204.0 L 60.5 212.0 L 106.0 224.5 L 0.5 225.0 L 0.5 0.0 Z" /><path desc="l 0 p 0" fill="rgb(0,0,0)" stroke="rgb(0,0,0)" stroke-width="1" opacity="1.0" d="M 19.5 0.0 L 158.5 0.0 L 193.5 0.0 L 202.5 0.0 Q 208.9 0.1 211.0 4.5 L 208.0 48.5 Q 205.8 49.8 207.0 54.5 L 205.0 76.5 L 198.5 150.0 L 195.5 183.0 L 195.0 193.5 Q 194.3 201.8 188.5 205.0 L 136.0 219.5 L 123.5 223.0 L 116.0 224.5 L 109.5 225.0 L 58.5 211.0 L 41.5 206.0 Q 34.3 205.8 32.0 200.5 Q 28.6 194.4 30.0 183.5 L 29.0 180.5 L 29.0 172.5 Q 26.8 171.3 28.0 166.5 L 26.5 150.0 L 17.5 49.0 L 15.0 20.5 L 14.0 4.5 L 19.5 0.0 Z" /><path desc="l 1 p 1" fill="rgb(254,254,254)" stroke="rgb(254,254,254)" stroke-width="1" opacity="1.0" d="M 207.5 0.0 L 225.0 0.5 L 224.5 225.0 L 119.0 224.5 L 170.0 210.5 L 182.5 207.0 Q 189.1 206.6 192.0 202.5 Q 195.7 199.7 195.0 192.5 L 196.0 181.5 L 198.5 155.0 L 199.0 147.5 L 200.0 143.5 L 201.0 126.5 L 203.0 104.5 L 212.0 6.5 L 208.5 1.0 L 207.5 0.0 Z" /><path desc="l 14 p 0" fill="rgb(150,150,150)" stroke="rgb(150,150,150)" stroke-width="1" opacity="1.0" d="M 16.5 1.0 L 14.5 4.0 L 16.5 1.0 Z" /><path desc="l 14 p 1" fill="rgb(150,150,150)" stroke="rgb(150,150,150)" stroke-width="1" opacity="1.0" d="M 208.5 1.0 L 210.5 4.0 L 208.5 1.0 Z" /><path desc="l 14 p 2" fill="rgb(150,150,150)" stroke="rgb(150,150,150)" stroke-width="1" opacity="1.0" d="M 13.5 6.0 L 14.0 8.5 L 13.0 8.5 L 13.5 6.0 Z" /><path desc="l 14 p 3" fill="rgb(150,150,150)" stroke="rgb(150,150,150)" stroke-width="1" opacity="1.0" d="M 211.5 6.0 L 212.0 8.5 L 211.0 8.5 L 211.5 6.0 Z" /><path desc="l 14 p 4" fill="rgb(150,150,150)" stroke="rgb(150,150,150)" stroke-width="1" opacity="1.0" d="M 14.5 15.0 L 15.0 19.5 L 14.0 19.5 L 14.5 15.0 Z" /><path desc="l 14 p 5" fill="rgb(150,150,150)" stroke="rgb(150,150,150)" stroke-width="1" opacity="1.0" d="M 210.5 15.0 L 211.0 19.5 L 210.0 19.5 L 210.5 15.0 Z" /><path desc="l 14 p 6" fill="rgb(150,150,150)" stroke="rgb(150,150,150)" stroke-width="1" opacity="1.0" d="M 15.5 26.0 L 16.0 30.5 L 15.0 30.5 L 15.5 26.0 Z" /><path desc="l 14 p 7" fill="rgb(150,150,150)" stroke="rgb(150,150,150)" stroke-width="1" opacity="1.0" d="M 209.5 26.0 L 210.0 30.5 L 209.0 30.5 L 209.5 26.0 Z" /><path desc="l 14 p 8" fill="rgb(150,150,150)" stroke="rgb(150,150,150)" stroke-width="1" opacity="1.0" d="M 16.5 38.0 L 17.0 42.5 L 16.0 42.5 L 16.5 38.0 Z" /><path desc="l 14 p 9" fill="rgb(150,150,150)" stroke="rgb(150,150,150)" stroke-width="1" opacity="1.0" d="M 208.5 38.0 L 209.0 42.5 L 208.0 42.5 L 208.5 38.0 Z" /><path desc="l 14 p 10" fill="rgb(150,150,150)" stroke="rgb(150,150,150)" stroke-width="1" opacity="1.0" d="M 52.5 43.0 L 173.0 43.5 L 52.5 44.0 L 52.5 43.0 Z" /><path desc="l 1 p 2" fill="rgb(254,254,254)" stroke="rgb(254,254,254)" stroke-width="1" opacity="1.0" d="M 51.5 44.0 L 174.0 44.5 L 175.0 46.5 L 174.0 51.5 L 173.0 60.5 L 171.5 68.0 L 136.0 82.5 L 127.5 86.0 Q 121.6 86.6 119.0 90.5 Q 120.8 93.8 127.5 92.0 L 149.5 92.0 L 158.5 92.0 Q 164.7 91.3 167.0 94.5 L 169.0 101.5 L 168.0 104.5 L 167.5 111.0 L 164.0 143.5 L 163.0 153.5 L 162.5 158.0 L 160.5 164.0 L 132.0 174.5 L 119.5 179.0 Q 116.6 181.6 110.5 181.0 L 81.0 170.5 L 72.0 167.5 L 64.0 163.5 L 62.0 153.5 L 60.5 140.0 L 60.0 130.5 Q 61.0 127.0 66.5 128.0 L 78.5 128.0 Q 81.5 128.5 81.0 132.5 L 82.0 136.5 Q 81.0 144.5 83.5 149.0 L 112.5 159.0 L 142.0 148.5 L 146.0 114.5 L 82.5 114.0 L 66.5 114.0 Q 60.4 115.1 58.0 112.5 L 56.5 103.0 L 56.0 92.5 L 61.5 89.0 L 70.5 86.0 L 113.0 67.5 L 111.5 65.0 L 68.5 65.0 L 57.5 65.0 Q 53.0 66.0 52.0 63.5 L 51.0 52.5 Q 52.3 47.8 50.0 46.5 L 51.5 44.0 Z" /><path desc="l 14 p 11" fill="rgb(150,150,150)" stroke="rgb(150,150,150)" stroke-width="1" opacity="1.0" d="M 50.5 47.0 L 51.0 50.5 L 50.0 50.5 L 50.5 47.0 Z" /><path desc="l 14 p 12" fill="rgb(150,150,150)" stroke="rgb(150,150,150)" stroke-width="1" opacity="1.0" d="M 174.5 47.0 L 175.0 50.5 L 174.0 50.5 L 174.5 47.0 Z" /><path desc="l 14 p 13" fill="rgb(150,150,150)" stroke="rgb(150,150,150)" stroke-width="1" opacity="1.0" d="M 17.5 49.0 L 18.0 53.5 L 17.0 53.5 L 17.5 49.0 Z" /><path desc="l 14 p 14" fill="rgb(150,150,150)" stroke="rgb(150,150,150)" stroke-width="1" opacity="1.0" d="M 207.5 49.0 L 208.0 53.5 L 207.0 53.5 L 207.5 49.0 Z" /><path desc="l 14 p 15" fill="rgb(150,150,150)" stroke="rgb(150,150,150)" stroke-width="1" opacity="1.0" d="M 173.5 56.0 L 174.0 59.5 L 173.0 59.5 L 173.5 56.0 Z" /><path desc="l 14 p 16" fill="rgb(150,150,150)" stroke="rgb(150,150,150)" stroke-width="1" opacity="1.0" d="M 51.5 57.0 L 52.0 60.5 L 51.0 60.5 L 51.5 57.0 Z" /><path desc="l 14 p 17" fill="rgb(150,150,150)" stroke="rgb(150,150,150)" stroke-width="1" opacity="1.0" d="M 18.5 60.0 L 19.0 64.5 L 18.0 64.5 L 18.5 60.0 Z" /><path desc="l 14 p 18" fill="rgb(150,150,150)" stroke="rgb(150,150,150)" stroke-width="1" opacity="1.0" d="M 206.5 60.0 L 207.0 64.5 L 206.0 64.5 L 206.5 60.0 Z" /><path desc="l 14 p 19" fill="rgb(150,150,150)" stroke="rgb(150,150,150)" stroke-width="1" opacity="1.0" d="M 54.5 65.0 L 112.0 65.5 L 54.5 66.0 L 54.5 65.0 Z" /><path desc="l 14 p 20" fill="rgb(150,150,150)" stroke="rgb(150,150,150)" stroke-width="1" opacity="1.0" d="M 172.5 65.0 L 173.0 67.5 L 172.0 67.5 L 172.5 65.0 Z" /><path desc="l 14 p 21" fill="rgb(150,150,150)" stroke="rgb(150,150,150)" stroke-width="1" opacity="1.0" d="M 112.5 67.0 L 111.5 69.0 L 112.5 67.0 Z" /><path desc="l 14 p 22" fill="rgb(150,150,150)" stroke="rgb(150,150,150)" stroke-width="1" opacity="1.0" d="M 205.5 71.0 L 206.0 75.5 L 205.0 75.5 L 205.5 71.0 Z" /><path desc="l 14 p 23" fill="rgb(150,150,150)" stroke="rgb(150,150,150)" stroke-width="1" opacity="1.0" d="M 19.5 72.0 L 20.0 75.5 L 19.0 75.5 L 19.5 72.0 Z" /><path desc="l 14 p 24" fill="rgb(150,150,150)" stroke="rgb(150,150,150)" stroke-width="1" opacity="1.0" d="M 20.5 82.0 L 21.0 87.5 L 20.0 87.5 L 20.5 82.0 Z" /><path desc="l 14 p 25" fill="rgb(150,150,150)" stroke="rgb(150,150,150)" stroke-width="1" opacity="1.0" d="M 204.5 82.0 L 205.0 87.5 L 204.0 87.5 L 204.5 82.0 Z" /><path desc="l 14 p 26" fill="rgb(150,150,150)" stroke="rgb(150,150,150)" stroke-width="1" opacity="1.0" d="M 55.5 93.0 L 56.0 96.5 L 55.0 96.5 L 55.5 93.0 Z" /><path desc="l 14 p 27" fill="rgb(150,150,150)" stroke="rgb(150,150,150)" stroke-width="1" opacity="1.0" d="M 21.5 94.0 L 22.0 97.5 L 21.0 97.5 L 21.5 94.0 Z" /><path desc="l 14 p 28" fill="rgb(150,150,150)" stroke="rgb(150,150,150)" stroke-width="1" opacity="1.0" d="M 203.5 94.0 L 204.0 97.5 L 203.0 97.5 L 203.5 94.0 Z" /><path desc="l 14 p 29" fill="rgb(150,150,150)" stroke="rgb(150,150,150)" stroke-width="1" opacity="1.0" d="M 168.5 102.0 L 169.0 105.5 L 168.0 105.5 L 168.5 102.0 Z" /><path desc="l 14 p 30" fill="rgb(150,150,150)" stroke="rgb(150,150,150)" stroke-width="1" opacity="1.0" d="M 56.5 103.0 L 57.0 106.5 L 56.0 106.5 L 56.5 103.0 Z" /><path desc="l 14 p 31" fill="rgb(150,150,150)" stroke="rgb(150,150,150)" stroke-width="1" opacity="1.0" d="M 22.5 105.0 L 23.0 109.5 L 22.0 109.5 L 22.5 105.0 Z" /><path desc="l 14 p 32" fill="rgb(150,150,150)" stroke="rgb(150,150,150)" stroke-width="1" opacity="1.0" d="M 202.5 105.0 L 203.0 109.5 L 202.0 109.5 L 202.5 105.0 Z" /><path desc="l 14 p 33" fill="rgb(150,150,150)" stroke="rgb(150,150,150)" stroke-width="1" opacity="1.0" d="M 167.5 111.0 L 168.0 114.5 L 167.0 114.5 L 167.5 111.0 Z" /><path desc="l 14 p 34" fill="rgb(150,150,150)" stroke="rgb(150,150,150)" stroke-width="1" opacity="1.0" d="M 145.5 114.0 L 146.0 116.5 L 145.0 116.5 L 145.5 114.0 Z" /><path desc="l 14 p 35" fill="rgb(150,150,150)" stroke="rgb(150,150,150)" stroke-width="1" opacity="1.0" d="M 23.5 116.0 L 24.0 120.5 L 23.0 120.5 L 23.5 116.0 Z" /><path desc="l 14 p 36" fill="rgb(150,150,150)" stroke="rgb(150,150,150)" stroke-width="1" opacity="1.0" d="M 201.5 116.0 L 202.0 120.5 L 201.0 120.5 L 201.5 116.0 Z" /><path desc="l 14 p 37" fill="rgb(150,150,150)" stroke="rgb(150,150,150)" stroke-width="1" opacity="1.0" d="M 166.5 121.0 L 167.0 124.5 L 166.0 124.5 L 166.5 121.0 Z" /><path desc="l 14 p 38" fill="rgb(150,150,150)" stroke="rgb(150,150,150)" stroke-width="1" opacity="1.0" d="M 144.5 122.0 L 145.0 125.5 L 144.0 125.5 L 144.5 122.0 Z" /><path desc="l 14 p 39" fill="rgb(150,150,150)" stroke="rgb(150,150,150)" stroke-width="1" opacity="1.0" d="M 24.5 127.0 L 25.0 131.5 L 24.0 131.5 L 24.5 127.0 Z" /><path desc="l 14 p 40" fill="rgb(150,150,150)" stroke="rgb(150,150,150)" stroke-width="1" opacity="1.0" d="M 63.5 127.0 L 78.0 127.5 L 63.5 128.0 L 63.5 127.0 Z" /><path desc="l 14 p 41" fill="rgb(150,150,150)" stroke="rgb(150,150,150)" stroke-width="1" opacity="1.0" d="M 200.5 127.0 L 201.0 131.5 L 200.0 131.5 L 200.5 127.0 Z" /><path desc="l 14 p 42" fill="rgb(150,150,150)" stroke="rgb(150,150,150)" stroke-width="1" opacity="1.0" d="M 61.5 128.0 L 60.5 130.0 L 61.5 128.0 Z" /><path desc="l 14 p 43" fill="rgb(150,150,150)" stroke="rgb(150,150,150)" stroke-width="1" opacity="1.0" d="M 79.5 128.0 L 80.5 130.0 L 79.5 128.0 Z" /><path desc="l 14 p 44" fill="rgb(150,150,150)" stroke="rgb(150,150,150)" stroke-width="1" opacity="1.0" d="M 165.5 130.0 L 166.0 133.5 L 165.0 133.5 L 165.5 130.0 Z" /><path desc="l 14 p 45" fill="rgb(150,150,150)" stroke="rgb(150,150,150)" stroke-width="1" opacity="1.0" d="M 59.5 131.0 L 60.0 134.5 L 59.0 134.5 L 59.5 131.0 Z" /><path desc="l 14 p 46" fill="rgb(150,150,150)" stroke="rgb(150,150,150)" stroke-width="1" opacity="1.0" d="M 143.5 131.0 L 144.0 135.5 L 143.0 135.5 L 143.5 131.0 Z" /><path desc="l 14 p 47" fill="rgb(150,150,150)" stroke="rgb(150,150,150)" stroke-width="1" opacity="1.0" d="M 81.5 132.0 L 82.0 135.5 L 81.0 135.5 L 81.5 132.0 Z" /><path desc="l 14 p 48" fill="rgb(150,150,150)" stroke="rgb(150,150,150)" stroke-width="1" opacity="1.0" d="M 25.5 139.0 L 26.0 143.5 L 25.0 143.5 L 25.5 139.0 Z" /><path desc="l 14 p 49" fill="rgb(150,150,150)" stroke="rgb(150,150,150)" stroke-width="1" opacity="1.0" d="M 164.5 139.0 L 165.0 143.5 L 164.0 143.5 L 164.5 139.0 Z" /><path desc="l 14 p 50" fill="rgb(150,150,150)" stroke="rgb(150,150,150)" stroke-width="1" opacity="1.0" d="M 199.5 139.0 L 200.0 143.5 L 199.0 143.5 L 199.5 139.0 Z" /><path desc="l 14 p 51" fill="rgb(150,150,150)" stroke="rgb(150,150,150)" stroke-width="1" opacity="1.0" d="M 60.5 140.0 L 61.0 143.5 L 60.0 143.5 L 60.5 140.0 Z" /><path desc="l 14 p 52" fill="rgb(150,150,150)" stroke="rgb(150,150,150)" stroke-width="1" opacity="1.0" d="M 82.5 141.0 L 83.0 144.5 L 82.0 144.5 L 82.5 141.0 Z" /><path desc="l 14 p 53" fill="rgb(150,150,150)" stroke="rgb(150,150,150)" stroke-width="1" opacity="1.0" d="M 142.5 141.0 L 143.0 144.5 L 142.0 144.5 L 142.5 141.0 Z" /><path desc="l 14 p 54" fill="rgb(150,150,150)" stroke="rgb(150,150,150)" stroke-width="1" opacity="1.0" d="M 61.5 149.0 L 62.0 152.5 L 61.0 152.5 L 61.5 149.0 Z" /><path desc="l 14 p 55" fill="rgb(150,150,150)" stroke="rgb(150,150,150)" stroke-width="1" opacity="1.0" d="M 163.5 149.0 L 164.0 152.5 L 163.0 152.5 L 163.5 149.0 Z" /><path desc="l 14 p 56" fill="rgb(150,150,150)" stroke="rgb(150,150,150)" stroke-width="1" opacity="1.0" d="M 26.5 150.0 L 27.0 154.5 L 26.0 154.5 L 26.5 150.0 Z" /><path desc="l 14 p 57" fill="rgb(150,150,150)" stroke="rgb(150,150,150)" stroke-width="1" opacity="1.0" d="M 198.5 150.0 L 199.0 154.5 L 198.0 154.5 L 198.5 150.0 Z" /><path desc="l 14 p 58" fill="rgb(150,150,150)" stroke="rgb(150,150,150)" stroke-width="1" opacity="1.0" d="M 62.5 158.0 L 63.0 160.5 L 62.0 160.5 L 62.5 158.0 Z" /><path desc="l 14 p 59" fill="rgb(150,150,150)" stroke="rgb(150,150,150)" stroke-width="1" opacity="1.0" d="M 162.5 158.0 L 163.0 160.5 L 162.0 160.5 L 162.5 158.0 Z" /><path desc="l 14 p 60" fill="rgb(150,150,150)" stroke="rgb(150,150,150)" stroke-width="1" opacity="1.0" d="M 27.5 161.0 L 28.0 165.5 L 27.0 165.5 L 27.5 161.0 Z" /><path desc="l 14 p 61" fill="rgb(150,150,150)" stroke="rgb(150,150,150)" stroke-width="1" opacity="1.0" d="M 197.5 161.0 L 198.0 165.5 L 197.0 165.5 L 197.5 161.0 Z" /><path desc="l 14 p 62" fill="rgb(150,150,150)" stroke="rgb(150,150,150)" stroke-width="1" opacity="1.0" d="M 159.5 164.0 L 158.5 166.0 L 157.0 165.5 L 159.5 164.0 Z" /><path desc="l 14 p 63" fill="rgb(150,150,150)" stroke="rgb(150,150,150)" stroke-width="1" opacity="1.0" d="M 28.5 172.0 L 29.0 176.5 L 28.0 176.5 L 28.5 172.0 Z" /><path desc="l 14 p 64" fill="rgb(150,150,150)" stroke="rgb(150,150,150)" stroke-width="1" opacity="1.0" d="M 196.5 172.0 L 197.0 176.5 L 196.0 176.5 L 196.5 172.0 Z" /><path desc="l 14 p 65" fill="rgb(150,150,150)" stroke="rgb(150,150,150)" stroke-width="1" opacity="1.0" d="M 29.5 183.0 L 30.0 188.5 L 29.0 188.5 L 29.5 183.0 Z" /><path desc="l 14 p 66" fill="rgb(150,150,150)" stroke="rgb(150,150,150)" stroke-width="1" opacity="1.0" d="M 195.5 183.0 L 196.0 187.5 L 195.0 187.5 L 195.5 183.0 Z" /><path desc="l 14 p 67" fill="rgb(150,150,150)" stroke="rgb(150,150,150)" stroke-width="1" opacity="1.0" d="M 33.5 202.0 L 34.5 204.0 L 33.5 202.0 Z" /><path desc="l 14 p 68" fill="rgb(150,150,150)" stroke="rgb(150,150,150)" stroke-width="1" opacity="1.0" d="M 191.5 202.0 L 190.5 204.0 L 191.5 202.0 Z" /><path desc="l 14 p 69" fill="rgb(150,150,150)" stroke="rgb(150,150,150)" stroke-width="1" opacity="1.0" d="M 106.5 224.0 L 109.0 224.5 L 106.5 225.0 L 106.5 224.0 Z" /><path desc="l 14 p 70" fill="rgb(150,150,150)" stroke="rgb(150,150,150)" stroke-width="1" opacity="1.0" d="M 116.5 224.0 L 119.0 224.5 L 116.5 225.0 L 116.5 224.0 Z" /></svg>