<svg width="560" height="560" version="1.1" xmlns="http://www.w3.org/2000/svg" desc="Created with ImageTracer.java version 1.1.2" ><path desc="l 2 p 0" fill="rgb(254,254,254)" stroke="rgb(254,254,254)" stroke-width="1" opacity="1.0" d="M 0.5 0.0 L 560.0 0.5 L 559.5 560.0 L 0.0 559.5 L 0.5 0.0 Z" /><path desc="l 11 p 0" fill="rgb(155,154,154)" stroke="rgb(155,154,154)" stroke-width="1" opacity="1.0" d="M 261.5 75.0 L 265.0 75.5 L 261.5 76.0 L 261.5 75.0 Z" /><path desc="l 13 p 0" fill="rgb(120,119,119)" stroke="rgb(120,119,119)" stroke-width="1" opacity="1.0" d="M 265.5 75.0 L 269.0 75.5 L 265.5 76.0 L 265.5 75.0 Z" /><path desc="l 0 p 0" fill="rgb(23,21,21)" stroke="rgb(23,21,21)" stroke-width="1" opacity="1.0" d="M 269.5 75.0 L 290.0 75.5 L 310.0 77.5 L 332.5 82.0 L 344.5 85.0 Q 368.0 92.5 387.0 104.5 Q 417.8 122.2 440.0 148.5 Q 457.6 168.9 470.0 194.5 L 481.0 223.5 L 485.0 239.5 L 489.0 262.5 L 490.0 292.5 Q 487.5 294.0 489.0 299.5 L 487.0 318.5 Q 480.0 359.0 461.5 388.0 Q 446.0 415.5 423.5 436.0 Q 398.5 460.0 364.0 474.5 L 351.5 479.0 Q 348.0 482.5 340.5 482.0 L 334.0 478.5 Q 330.0 473.5 332.0 462.5 L 332.0 426.5 L 332.0 410.5 L 331.0 401.5 Q 328.9 385.1 319.0 376.5 L 324.5 375.0 L 342.5 372.0 Q 374.8 364.8 393.0 343.5 Q 406.0 328.5 411.0 305.5 L 413.0 291.5 L 414.0 280.5 L 414.0 263.5 L 411.5 252.0 Q 409.3 239.7 403.0 231.5 L 396.0 221.5 L 394.0 218.5 L 393.0 214.5 L 395.5 206.0 L 396.0 201.5 L 397.0 189.5 L 396.0 186.5 L 395.5 180.0 Q 394.4 168.6 389.5 161.0 L 381.5 161.0 L 376.5 162.0 L 366.5 165.0 L 349.5 172.0 L 337.0 179.5 Q 335.0 183.0 328.5 182.0 L 316.5 179.0 L 297.0 176.5 L 262.5 176.0 L 251.5 178.0 L 238.5 180.0 L 233.5 181.0 L 227.5 183.0 L 205.5 170.0 L 193.5 165.0 L 183.5 162.0 Q 178.4 159.6 169.5 161.0 Q 164.4 169.4 163.0 181.5 L 162.0 196.5 L 166.0 217.5 Q 156.1 227.1 151.0 241.5 Q 146.2 250.2 145.5 263.0 L 145.0 286.5 L 149.0 308.5 Q 155.5 336.5 174.5 352.0 Q 189.2 364.8 211.0 370.5 L 240.0 376.5 Q 232.0 383.5 229.0 395.5 L 228.0 400.5 L 226.5 404.0 Q 215.6 410.1 197.5 409.0 Q 180.8 405.7 172.0 394.5 Q 166.1 382.5 156.5 374.0 L 146.0 367.5 Q 140.0 363.5 128.5 365.0 L 124.0 368.5 L 128.5 375.0 Q 139.1 380.4 146.0 389.5 L 154.5 405.0 Q 158.8 417.7 168.5 425.0 Q 178.1 432.9 193.5 435.0 L 207.5 436.0 Q 208.8 433.8 213.5 435.0 L 226.5 433.0 L 227.0 474.5 L 223.5 480.0 Q 220.6 482.6 214.5 482.0 Q 159.0 463.5 124.0 424.5 Q 103.9 403.1 90.5 375.0 Q 79.6 355.4 74.5 330.0 L 71.5 314.0 L 70.0 299.5 L 69.0 274.5 Q 71.5 273.0 70.0 267.5 L 72.5 247.0 Q 79.5 206.0 99.0 177.5 Q 115.7 147.2 141.5 126.0 Q 160.1 109.6 183.5 98.0 L 211.0 86.5 L 226.5 82.0 L 245.5 78.0 L 262.5 76.0 Q 268.0 77.5 269.5 75.0 Z" /><path desc="l 13 p 1" fill="rgb(120,119,119)" stroke="rgb(120,119,119)" stroke-width="1" opacity="1.0" d="M 290.5 75.0 L 294.0 75.5 L 290.5 76.0 L 290.5 75.0 Z" /><path desc="l 11 p 1" fill="rgb(155,154,154)" stroke="rgb(155,154,154)" stroke-width="1" opacity="1.0" d="M 294.5 75.0 L 298.0 75.5 L 294.5 76.0 L 294.5 75.0 Z" /><path desc="l 13 p 2" fill="rgb(120,119,119)" stroke="rgb(120,119,119)" stroke-width="1" opacity="1.0" d="M 302.5 76.0 L 305.0 76.5 L 302.5 77.0 L 302.5 76.0 Z" /><path desc="l 13 p 3" fill="rgb(120,119,119)" stroke="rgb(120,119,119)" stroke-width="1" opacity="1.0" d="M 153.5 116.0 L 152.5 118.0 L 153.5 116.0 Z" /><path desc="l 13 p 4" fill="rgb(120,119,119)" stroke="rgb(120,119,119)" stroke-width="1" opacity="1.0" d="M 405.5 116.0 L 406.5 118.0 L 405.5 116.0 Z" /><path desc="l 13 p 5" fill="rgb(120,119,119)" stroke="rgb(120,119,119)" stroke-width="1" opacity="1.0" d="M 149.5 119.0 L 148.5 121.0 L 149.5 119.0 Z" /><path desc="l 13 p 6" fill="rgb(120,119,119)" stroke="rgb(120,119,119)" stroke-width="1" opacity="1.0" d="M 409.5 119.0 L 410.5 121.0 L 409.5 119.0 Z" /><path desc="l 11 p 2" fill="rgb(155,154,154)" stroke="rgb(155,154,154)" stroke-width="1" opacity="1.0" d="M 145.5 122.0 L 144.5 124.0 L 145.5 122.0 Z" /><path desc="l 11 p 3" fill="rgb(155,154,154)" stroke="rgb(155,154,154)" stroke-width="1" opacity="1.0" d="M 413.5 122.0 L 414.5 124.0 L 413.5 122.0 Z" /><path desc="l 13 p 7" fill="rgb(120,119,119)" stroke="rgb(120,119,119)" stroke-width="1" opacity="1.0" d="M 143.5 124.0 L 142.5 126.0 L 143.5 124.0 Z" /><path desc="l 13 p 8" fill="rgb(120,119,119)" stroke="rgb(120,119,119)" stroke-width="1" opacity="1.0" d="M 415.5 124.0 L 416.5 126.0 L 415.5 124.0 Z" /><path desc="l 11 p 4" fill="rgb(155,154,154)" stroke="rgb(155,154,154)" stroke-width="1" opacity="1.0" d="M 139.5 127.0 L 136.5 131.0 L 139.5 127.0 Z" /><path desc="l 11 p 5" fill="rgb(155,154,154)" stroke="rgb(155,154,154)" stroke-width="1" opacity="1.0" d="M 419.5 127.0 L 422.5 131.0 L 419.5 127.0 Z" /><path desc="l 13 p 9" fill="rgb(120,119,119)" stroke="rgb(120,119,119)" stroke-width="1" opacity="1.0" d="M 135.5 131.0 L 124.5 143.0 L 135.5 131.0 Z" /><path desc="l 13 p 10" fill="rgb(120,119,119)" stroke="rgb(120,119,119)" stroke-width="1" opacity="1.0" d="M 423.5 131.0 L 434.5 143.0 L 423.5 131.0 Z" /><path desc="l 11 p 6" fill="rgb(155,154,154)" stroke="rgb(155,154,154)" stroke-width="1" opacity="1.0" d="M 123.5 143.0 L 120.5 147.0 L 123.5 143.0 Z" /><path desc="l 11 p 7" fill="rgb(155,154,154)" stroke="rgb(155,154,154)" stroke-width="1" opacity="1.0" d="M 435.5 143.0 L 438.5 147.0 L 435.5 143.0 Z" /><path desc="l 13 p 11" fill="rgb(120,119,119)" stroke="rgb(120,119,119)" stroke-width="1" opacity="1.0" d="M 118.5 149.0 L 117.5 151.0 L 118.5 149.0 Z" /><path desc="l 13 p 12" fill="rgb(120,119,119)" stroke="rgb(120,119,119)" stroke-width="1" opacity="1.0" d="M 440.5 149.0 L 441.5 151.0 L 440.5 149.0 Z" /><path desc="l 11 p 8" fill="rgb(155,154,154)" stroke="rgb(155,154,154)" stroke-width="1" opacity="1.0" d="M 116.5 151.0 L 115.5 153.0 L 116.5 151.0 Z" /><path desc="l 11 p 9" fill="rgb(155,154,154)" stroke="rgb(155,154,154)" stroke-width="1" opacity="1.0" d="M 442.5 151.0 L 443.5 153.0 L 442.5 151.0 Z" /><path desc="l 11 p 10" fill="rgb(155,154,154)" stroke="rgb(155,154,154)" stroke-width="1" opacity="1.0" d="M 112.5 156.0 L 111.5 158.0 L 112.5 156.0 Z" /><path desc="l 11 p 11" fill="rgb(155,154,154)" stroke="rgb(155,154,154)" stroke-width="1" opacity="1.0" d="M 446.5 156.0 L 447.5 158.0 L 446.5 156.0 Z" /><path desc="l 11 p 12" fill="rgb(155,154,154)" stroke="rgb(155,154,154)" stroke-width="1" opacity="1.0" d="M 109.5 160.0 L 108.5 162.0 L 109.5 160.0 Z" /><path desc="l 11 p 13" fill="rgb(155,154,154)" stroke="rgb(155,154,154)" stroke-width="1" opacity="1.0" d="M 449.5 160.0 L 450.5 162.0 L 449.5 160.0 Z" /><path desc="l 13 p 13" fill="rgb(120,119,119)" stroke="rgb(120,119,119)" stroke-width="1" opacity="1.0" d="M 262.5 176.0 L 265.0 176.5 L 262.5 177.0 L 262.5 176.0 Z" /><path desc="l 11 p 14" fill="rgb(155,154,154)" stroke="rgb(155,154,154)" stroke-width="1" opacity="1.0" d="M 265.5 176.0 L 270.0 176.5 L 265.5 177.0 L 265.5 176.0 Z" /><path desc="l 11 p 15" fill="rgb(155,154,154)" stroke="rgb(155,154,154)" stroke-width="1" opacity="1.0" d="M 289.5 176.0 L 294.0 176.5 L 289.5 177.0 L 289.5 176.0 Z" /><path desc="l 13 p 14" fill="rgb(120,119,119)" stroke="rgb(120,119,119)" stroke-width="1" opacity="1.0" d="M 294.5 176.0 L 297.0 176.5 L 294.5 177.0 L 294.5 176.0 Z" /><path desc="l 13 p 15" fill="rgb(120,119,119)" stroke="rgb(120,119,119)" stroke-width="1" opacity="1.0" d="M 252.5 177.0 L 255.0 177.5 L 252.5 178.0 L 252.5 177.0 Z" /><path desc="l 13 p 16" fill="rgb(120,119,119)" stroke="rgb(120,119,119)" stroke-width="1" opacity="1.0" d="M 304.5 177.0 L 307.0 177.5 L 304.5 178.0 L 304.5 177.0 Z" /><path desc="l 13 p 17" fill="rgb(120,119,119)" stroke="rgb(120,119,119)" stroke-width="1" opacity="1.0" d="M 330.5 182.0 L 333.0 182.5 L 330.5 183.0 L 330.5 182.0 Z" /><path desc="l 13 p 18" fill="rgb(120,119,119)" stroke="rgb(120,119,119)" stroke-width="1" opacity="1.0" d="M 162.5 189.0 L 163.0 196.5 L 162.0 196.5 L 162.5 189.0 Z" /><path desc="l 13 p 19" fill="rgb(120,119,119)" stroke="rgb(120,119,119)" stroke-width="1" opacity="1.0" d="M 396.5 189.0 L 397.0 196.5 L 396.0 196.5 L 396.5 189.0 Z" /><path desc="l 11 p 16" fill="rgb(155,154,154)" stroke="rgb(155,154,154)" stroke-width="1" opacity="1.0" d="M 166.5 217.0 L 165.5 219.0 L 166.5 217.0 Z" /><path desc="l 11 p 17" fill="rgb(155,154,154)" stroke="rgb(155,154,154)" stroke-width="1" opacity="1.0" d="M 392.5 217.0 L 394.5 220.0 L 392.5 217.0 Z" /><path desc="l 13 p 20" fill="rgb(120,119,119)" stroke="rgb(120,119,119)" stroke-width="1" opacity="1.0" d="M 164.5 219.0 L 163.5 221.0 L 164.5 219.0 Z" /><path desc="l 13 p 21" fill="rgb(120,119,119)" stroke="rgb(120,119,119)" stroke-width="1" opacity="1.0" d="M 70.5 258.0 L 71.0 260.5 L 70.0 260.5 L 70.5 258.0 Z" /><path desc="l 13 p 22" fill="rgb(120,119,119)" stroke="rgb(120,119,119)" stroke-width="1" opacity="1.0" d="M 488.5 258.0 L 489.0 260.5 L 488.0 260.5 L 488.5 258.0 Z" /><path desc="l 13 p 23" fill="rgb(120,119,119)" stroke="rgb(120,119,119)" stroke-width="1" opacity="1.0" d="M 145.5 263.0 L 146.0 265.5 L 145.0 265.5 L 145.5 263.0 Z" /><path desc="l 13 p 24" fill="rgb(120,119,119)" stroke="rgb(120,119,119)" stroke-width="1" opacity="1.0" d="M 413.5 263.0 L 414.0 265.5 L 413.0 265.5 L 413.5 263.0 Z" /><path desc="l 11 p 18" fill="rgb(155,154,154)" stroke="rgb(155,154,154)" stroke-width="1" opacity="1.0" d="M 69.5 265.0 L 70.0 268.5 L 69.0 268.5 L 69.5 265.0 Z" /><path desc="l 11 p 19" fill="rgb(155,154,154)" stroke="rgb(155,154,154)" stroke-width="1" opacity="1.0" d="M 489.5 265.0 L 490.0 268.5 L 489.0 268.5 L 489.5 265.0 Z" /><path desc="l 11 p 20" fill="rgb(155,154,154)" stroke="rgb(155,154,154)" stroke-width="1" opacity="1.0" d="M 145.5 266.0 L 146.0 281.5 L 145.0 281.5 L 145.5 266.0 Z" /><path desc="l 11 p 21" fill="rgb(155,154,154)" stroke="rgb(155,154,154)" stroke-width="1" opacity="1.0" d="M 413.5 266.0 L 414.0 281.5 L 413.0 281.5 L 413.5 266.0 Z" /><path desc="l 13 p 25" fill="rgb(120,119,119)" stroke="rgb(120,119,119)" stroke-width="1" opacity="1.0" d="M 69.5 269.0 L 70.0 273.5 L 69.0 273.5 L 69.5 269.0 Z" /><path desc="l 13 p 26" fill="rgb(120,119,119)" stroke="rgb(120,119,119)" stroke-width="1" opacity="1.0" d="M 489.5 269.0 L 490.0 273.5 L 489.0 273.5 L 489.5 269.0 Z" /><path desc="l 13 p 27" fill="rgb(120,119,119)" stroke="rgb(120,119,119)" stroke-width="1" opacity="1.0" d="M 145.5 282.0 L 146.0 286.5 L 145.0 286.5 L 145.5 282.0 Z" /><path desc="l 13 p 28" fill="rgb(120,119,119)" stroke="rgb(120,119,119)" stroke-width="1" opacity="1.0" d="M 413.5 282.0 L 414.0 286.5 L 413.0 286.5 L 413.5 282.0 Z" /><path desc="l 11 p 22" fill="rgb(155,154,154)" stroke="rgb(155,154,154)" stroke-width="1" opacity="1.0" d="M 146.5 291.0 L 147.0 293.5 L 146.0 293.5 L 146.5 291.0 Z" /><path desc="l 11 p 23" fill="rgb(155,154,154)" stroke="rgb(155,154,154)" stroke-width="1" opacity="1.0" d="M 412.5 291.0 L 413.0 293.5 L 412.0 293.5 L 412.5 291.0 Z" /><path desc="l 13 p 29" fill="rgb(120,119,119)" stroke="rgb(120,119,119)" stroke-width="1" opacity="1.0" d="M 69.5 293.0 L 70.0 297.5 L 69.0 297.5 L 69.5 293.0 Z" /><path desc="l 13 p 30" fill="rgb(120,119,119)" stroke="rgb(120,119,119)" stroke-width="1" opacity="1.0" d="M 489.5 293.0 L 490.0 297.5 L 489.0 297.5 L 489.5 293.0 Z" /><path desc="l 11 p 24" fill="rgb(155,154,154)" stroke="rgb(155,154,154)" stroke-width="1" opacity="1.0" d="M 69.5 298.0 L 70.0 301.5 L 69.0 301.5 L 69.5 298.0 Z" /><path desc="l 11 p 25" fill="rgb(155,154,154)" stroke="rgb(155,154,154)" stroke-width="1" opacity="1.0" d="M 489.5 298.0 L 490.0 301.5 L 489.0 301.5 L 489.5 298.0 Z" /><path desc="l 13 p 31" fill="rgb(120,119,119)" stroke="rgb(120,119,119)" stroke-width="1" opacity="1.0" d="M 70.5 306.0 L 71.0 308.5 L 70.0 308.5 L 70.5 306.0 Z" /><path desc="l 13 p 32" fill="rgb(120,119,119)" stroke="rgb(120,119,119)" stroke-width="1" opacity="1.0" d="M 488.5 306.0 L 489.0 308.5 L 488.0 308.5 L 488.5 306.0 Z" /><path desc="l 13 p 33" fill="rgb(120,119,119)" stroke="rgb(120,119,119)" stroke-width="1" opacity="1.0" d="M 166.5 343.0 L 168.5 346.0 L 166.5 343.0 Z" /><path desc="l 13 p 34" fill="rgb(120,119,119)" stroke="rgb(120,119,119)" stroke-width="1" opacity="1.0" d="M 392.5 343.0 L 390.5 346.0 L 392.5 343.0 Z" /><path desc="l 11 p 26" fill="rgb(155,154,154)" stroke="rgb(155,154,154)" stroke-width="1" opacity="1.0" d="M 169.5 346.0 L 172.5 350.0 L 169.5 346.0 Z" /><path desc="l 11 p 27" fill="rgb(155,154,154)" stroke="rgb(155,154,154)" stroke-width="1" opacity="1.0" d="M 389.5 346.0 L 387.5 349.0 L 389.5 346.0 Z" /><path desc="l 13 p 35" fill="rgb(120,119,119)" stroke="rgb(120,119,119)" stroke-width="1" opacity="1.0" d="M 386.5 349.0 L 384.5 352.0 L 386.5 349.0 Z" /><path desc="l 13 p 36" fill="rgb(120,119,119)" stroke="rgb(120,119,119)" stroke-width="1" opacity="1.0" d="M 173.5 350.0 L 174.5 352.0 L 173.5 350.0 Z" /><path desc="l 11 p 28" fill="rgb(155,154,154)" stroke="rgb(155,154,154)" stroke-width="1" opacity="1.0" d="M 177.5 353.0 L 178.5 355.0 L 177.5 353.0 Z" /><path desc="l 13 p 37" fill="rgb(120,119,119)" stroke="rgb(120,119,119)" stroke-width="1" opacity="1.0" d="M 380.5 354.0 L 379.5 356.0 L 380.5 354.0 Z" /><path desc="l 13 p 38" fill="rgb(120,119,119)" stroke="rgb(120,119,119)" stroke-width="1" opacity="1.0" d="M 125.5 371.0 L 128.5 375.0 L 125.5 371.0 Z" /><path desc="l 0 p 1" fill="rgb(23,21,21)" stroke="rgb(23,21,21)" stroke-width="1" opacity="1.0" d="M 144.5 371.0 L 149.0 373.5 L 148.5 375.0 L 144.0 374.5 L 143.0 372.5 L 144.5 371.0 Z" /><path desc="l 11 p 29" fill="rgb(155,154,154)" stroke="rgb(155,154,154)" stroke-width="1" opacity="1.0" d="M 147.5 371.0 L 148.5 373.0 L 147.5 371.0 Z" /><path desc="l 13 p 39" fill="rgb(120,119,119)" stroke="rgb(120,119,119)" stroke-width="1" opacity="1.0" d="M 156.5 374.0 L 161.5 380.0 L 156.5 374.0 Z" /><path desc="l 13 p 40" fill="rgb(120,119,119)" stroke="rgb(120,119,119)" stroke-width="1" opacity="1.0" d="M 236.5 375.0 L 239.0 375.5 L 236.5 376.0 L 236.5 375.0 Z" /><path desc="l 11 p 30" fill="rgb(155,154,154)" stroke="rgb(155,154,154)" stroke-width="1" opacity="1.0" d="M 239.5 375.0 L 241.0 375.5 L 238.5 379.0 L 239.5 375.0 Z" /><path desc="l 13 p 41" fill="rgb(120,119,119)" stroke="rgb(120,119,119)" stroke-width="1" opacity="1.0" d="M 319.5 375.0 L 321.0 375.5 L 319.0 376.5 L 321.5 380.0 L 319.0 377.5 Q 316.8 376.3 319.5 375.0 Z" /><path desc="l 0 p 2" fill="rgb(23,21,21)" stroke="rgb(23,21,21)" stroke-width="1" opacity="1.0" d="M 153.5 378.0 L 157.0 380.5 L 158.0 382.5 L 154.5 384.0 Q 151.5 383.5 152.0 379.5 L 153.5 378.0 Z" /><path desc="l 13 p 42" fill="rgb(120,119,119)" stroke="rgb(120,119,119)" stroke-width="1" opacity="1.0" d="M 237.5 379.0 L 236.5 381.0 L 237.5 379.0 Z" /><path desc="l 11 p 31" fill="rgb(155,154,154)" stroke="rgb(155,154,154)" stroke-width="1" opacity="1.0" d="M 137.5 380.0 L 138.5 382.0 L 137.5 380.0 Z" /><path desc="l 13 p 43" fill="rgb(120,119,119)" stroke="rgb(120,119,119)" stroke-width="1" opacity="1.0" d="M 139.5 382.0 L 142.5 386.0 L 139.5 382.0 Z" /><path desc="l 13 p 44" fill="rgb(120,119,119)" stroke="rgb(120,119,119)" stroke-width="1" opacity="1.0" d="M 152.5 382.0 L 153.5 384.0 L 152.5 382.0 Z" /><path desc="l 11 p 32" fill="rgb(155,154,154)" stroke="rgb(155,154,154)" stroke-width="1" opacity="1.0" d="M 143.5 386.0 L 144.5 388.0 L 143.5 386.0 Z" /><path desc="l 0 p 3" fill="rgb(23,21,21)" stroke="rgb(23,21,21)" stroke-width="1" opacity="1.0" d="M 161.5 389.0 Q 165.5 388.5 166.0 391.5 L 165.5 396.0 Q 161.8 396.8 161.0 394.5 L 160.0 390.5 L 161.5 389.0 Z" /><path desc="l 11 p 33" fill="rgb(155,154,154)" stroke="rgb(155,154,154)" stroke-width="1" opacity="1.0" d="M 164.5 389.0 L 165.5 391.0 L 164.5 389.0 Z" /><path desc="l 11 p 34" fill="rgb(155,154,154)" stroke="rgb(155,154,154)" stroke-width="1" opacity="1.0" d="M 169.5 391.0 L 170.5 393.0 L 169.5 391.0 Z" /><path desc="l 0 p 4" fill="rgb(23,21,21)" stroke="rgb(23,21,21)" stroke-width="1" opacity="1.0" d="M 171.5 401.0 L 177.0 403.5 L 176.5 408.0 L 171.0 406.5 L 170.0 402.5 L 171.5 401.0 Z" /><path desc="l 11 p 35" fill="rgb(155,154,154)" stroke="rgb(155,154,154)" stroke-width="1" opacity="1.0" d="M 179.5 401.0 L 180.5 403.0 L 179.5 401.0 Z" /><path desc="l 11 p 36" fill="rgb(155,154,154)" stroke="rgb(155,154,154)" stroke-width="1" opacity="1.0" d="M 331.5 406.0 L 332.0 409.5 L 331.0 409.5 L 331.5 406.0 Z" /><path desc="l 11 p 37" fill="rgb(155,154,154)" stroke="rgb(155,154,154)" stroke-width="1" opacity="1.0" d="M 110.5 408.0 L 111.5 410.0 L 110.5 408.0 Z" /><path desc="l 11 p 38" fill="rgb(155,154,154)" stroke="rgb(155,154,154)" stroke-width="1" opacity="1.0" d="M 448.5 408.0 L 447.5 410.0 L 448.5 408.0 Z" /><path desc="l 11 p 39" fill="rgb(155,154,154)" stroke="rgb(155,154,154)" stroke-width="1" opacity="1.0" d="M 202.5 409.0 L 205.0 409.5 L 202.5 410.0 L 202.5 409.0 Z" /><path desc="l 0 p 5" fill="rgb(23,21,21)" stroke="rgb(23,21,21)" stroke-width="1" opacity="1.0" d="M 185.5 410.0 Q 191.0 409.0 192.0 412.5 L 190.5 416.0 Q 185.4 416.6 184.0 413.5 L 185.5 410.0 Z" /><path desc="l 11 p 40" fill="rgb(155,154,154)" stroke="rgb(155,154,154)" stroke-width="1" opacity="1.0" d="M 220.5 410.0 L 224.0 410.5 L 220.5 411.0 L 220.5 410.0 Z" /><path desc="l 0 p 6" fill="rgb(23,21,21)" stroke="rgb(23,21,21)" stroke-width="1" opacity="1.0" d="M 219.5 411.0 L 225.0 411.5 L 226.0 413.5 L 220.5 417.0 L 217.0 414.5 L 219.5 411.0 Z" /><path desc="l 11 p 41" fill="rgb(155,154,154)" stroke="rgb(155,154,154)" stroke-width="1" opacity="1.0" d="M 204.5 412.0 L 207.0 412.5 L 204.5 413.0 L 204.5 412.0 Z" /><path desc="l 13 p 45" fill="rgb(120,119,119)" stroke="rgb(120,119,119)" stroke-width="1" opacity="1.0" d="M 192.5 413.0 L 193.0 414.5 L 191.0 415.5 L 192.5 413.0 Z" /><path desc="l 0 p 7" fill="rgb(23,21,21)" stroke="rgb(23,21,21)" stroke-width="1" opacity="1.0" d="M 203.5 413.0 Q 209.0 412.0 210.0 415.5 L 208.5 418.0 L 205.5 419.0 L 201.0 416.5 L 201.5 414.0 L 203.5 413.0 Z" /><path desc="l 13 p 46" fill="rgb(120,119,119)" stroke="rgb(120,119,119)" stroke-width="1" opacity="1.0" d="M 208.5 413.0 L 209.5 415.0 L 208.5 413.0 Z" /><path desc="l 13 p 47" fill="rgb(120,119,119)" stroke="rgb(120,119,119)" stroke-width="1" opacity="1.0" d="M 115.5 414.0 L 116.5 416.0 L 115.5 414.0 Z" /><path desc="l 13 p 48" fill="rgb(120,119,119)" stroke="rgb(120,119,119)" stroke-width="1" opacity="1.0" d="M 225.5 414.0 L 224.5 416.0 L 225.5 414.0 Z" /><path desc="l 13 p 49" fill="rgb(120,119,119)" stroke="rgb(120,119,119)" stroke-width="1" opacity="1.0" d="M 443.5 414.0 L 442.5 416.0 L 443.5 414.0 Z" /><path desc="l 13 p 50" fill="rgb(120,119,119)" stroke="rgb(120,119,119)" stroke-width="1" opacity="1.0" d="M 161.5 417.0 L 162.5 419.0 L 161.5 417.0 Z" /><path desc="l 11 p 42" fill="rgb(155,154,154)" stroke="rgb(155,154,154)" stroke-width="1" opacity="1.0" d="M 440.5 418.0 L 438.5 421.0 L 440.5 418.0 Z" /><path desc="l 11 p 43" fill="rgb(155,154,154)" stroke="rgb(155,154,154)" stroke-width="1" opacity="1.0" d="M 119.5 419.0 L 120.5 421.0 L 119.5 419.0 Z" /><path desc="l 11 p 44" fill="rgb(155,154,154)" stroke="rgb(155,154,154)" stroke-width="1" opacity="1.0" d="M 163.5 419.0 L 166.5 423.0 L 163.5 419.0 Z" /><path desc="l 13 p 51" fill="rgb(120,119,119)" stroke="rgb(120,119,119)" stroke-width="1" opacity="1.0" d="M 121.5 421.0 L 123.5 424.0 L 121.5 421.0 Z" /><path desc="l 13 p 52" fill="rgb(120,119,119)" stroke="rgb(120,119,119)" stroke-width="1" opacity="1.0" d="M 437.5 421.0 L 435.5 424.0 L 437.5 421.0 Z" /><path desc="l 13 p 53" fill="rgb(120,119,119)" stroke="rgb(120,119,119)" stroke-width="1" opacity="1.0" d="M 167.5 423.0 L 168.5 425.0 L 167.5 423.0 Z" /><path desc="l 11 p 45" fill="rgb(155,154,154)" stroke="rgb(155,154,154)" stroke-width="1" opacity="1.0" d="M 214.5 434.0 L 217.0 434.5 L 214.5 435.0 L 214.5 434.0 Z" /><path desc="l 13 p 54" fill="rgb(120,119,119)" stroke="rgb(120,119,119)" stroke-width="1" opacity="1.0" d="M 201.5 435.0 L 208.0 435.5 L 201.5 436.0 L 201.5 435.0 Z" /><path desc="l 13 p 55" fill="rgb(120,119,119)" stroke="rgb(120,119,119)" stroke-width="1" opacity="1.0" d="M 136.5 436.0 L 138.5 439.0 L 136.5 436.0 Z" /><path desc="l 13 p 56" fill="rgb(120,119,119)" stroke="rgb(120,119,119)" stroke-width="1" opacity="1.0" d="M 422.5 436.0 L 419.5 440.0 L 422.5 436.0 Z" /><path desc="l 11 p 46" fill="rgb(155,154,154)" stroke="rgb(155,154,154)" stroke-width="1" opacity="1.0" d="M 139.5 439.0 L 141.5 442.0 L 139.5 439.0 Z" /><path desc="l 11 p 47" fill="rgb(155,154,154)" stroke="rgb(155,154,154)" stroke-width="1" opacity="1.0" d="M 418.5 440.0 L 417.5 442.0 L 418.5 440.0 Z" /><path desc="l 13 p 57" fill="rgb(120,119,119)" stroke="rgb(120,119,119)" stroke-width="1" opacity="1.0" d="M 144.5 443.0 L 145.5 445.0 L 144.5 443.0 Z" /><path desc="l 13 p 58" fill="rgb(120,119,119)" stroke="rgb(120,119,119)" stroke-width="1" opacity="1.0" d="M 414.5 443.0 L 413.5 445.0 L 414.5 443.0 Z" /><path desc="l 11 p 48" fill="rgb(155,154,154)" stroke="rgb(155,154,154)" stroke-width="1" opacity="1.0" d="M 146.5 445.0 L 147.5 447.0 L 146.5 445.0 Z" /><path desc="l 11 p 49" fill="rgb(155,154,154)" stroke="rgb(155,154,154)" stroke-width="1" opacity="1.0" d="M 412.5 445.0 L 411.5 447.0 L 412.5 445.0 Z" /><path desc="l 13 p 59" fill="rgb(120,119,119)" stroke="rgb(120,119,119)" stroke-width="1" opacity="1.0" d="M 149.5 447.0 L 150.5 449.0 L 149.5 447.0 Z" /><path desc="l 11 p 50" fill="rgb(155,154,154)" stroke="rgb(155,154,154)" stroke-width="1" opacity="1.0" d="M 227.5 452.0 L 228.0 472.5 L 227.0 472.5 L 227.5 452.0 Z" /><path desc="l 11 p 51" fill="rgb(155,154,154)" stroke="rgb(155,154,154)" stroke-width="1" opacity="1.0" d="M 331.5 453.0 L 332.0 472.5 L 331.0 472.5 L 331.5 453.0 Z" /></svg>